<svg width="234" height="38" viewBox="0 0 234 38" fill="none" xmlns="http://www.w3.org/2000/svg">
<path d="M1.09033 33.0483V32.5151H2.4165C2.67399 32.5151 2.88135 32.4741 3.03857 32.3921C3.19808 32.3078 3.31429 32.1927 3.38721 32.0469C3.4624 31.901 3.5 31.7347 3.5 31.5479C3.5 31.377 3.4624 31.2163 3.38721 31.0659C3.31429 30.9155 3.19808 30.7936 3.03857 30.7002C2.88135 30.6068 2.67399 30.5601 2.4165 30.5601H1.24072V35H0.577637V30.0234H2.4165C2.79248 30.0234 3.11035 30.0884 3.37012 30.2183C3.62988 30.3481 3.82699 30.527 3.96143 30.7549C4.09587 30.9827 4.16309 31.2448 4.16309 31.541C4.16309 31.86 4.09587 32.1323 3.96143 32.3579C3.82699 32.5835 3.62988 32.7555 3.37012 32.874C3.11035 32.9902 2.79248 33.0483 2.4165 33.0483H1.09033ZM12.032 32.6724C12.032 33.1691 11.95 33.5964 11.7859 33.9541C11.6219 34.3118 11.3906 34.5876 11.0921 34.7812C10.7936 34.9727 10.4415 35.0684 10.0359 35.0684C9.64401 35.0684 9.29652 34.9727 8.99346 34.7812C8.6904 34.5876 8.45342 34.3118 8.28252 33.9541C8.11162 33.5964 8.02617 33.1691 8.02617 32.6724V32.3545C8.02617 31.8577 8.11048 31.4305 8.2791 31.0728C8.45 30.7127 8.68584 30.437 8.98662 30.2456C9.28968 30.0519 9.63717 29.9551 10.0291 29.9551C10.4347 29.9551 10.7868 30.0519 11.0853 30.2456C11.386 30.437 11.6185 30.7127 11.7825 31.0728C11.9489 31.4305 12.032 31.8577 12.032 32.3545V32.6724ZM11.3758 32.3477C11.3758 31.9512 11.3222 31.6174 11.2151 31.3462C11.108 31.0728 10.9542 30.8654 10.7537 30.7241C10.5532 30.5828 10.3117 30.5122 10.0291 30.5122C9.75794 30.5122 9.52096 30.5828 9.31816 30.7241C9.11764 30.8654 8.96156 31.0728 8.8499 31.3462C8.74053 31.6174 8.68584 31.9512 8.68584 32.3477V32.6724C8.68584 33.0711 8.74167 33.4072 8.85332 33.6807C8.96497 33.9541 9.1222 34.1615 9.325 34.3027C9.5278 34.444 9.76478 34.5146 10.0359 34.5146C10.3208 34.5146 10.5623 34.444 10.7605 34.3027C10.9611 34.1615 11.1137 33.9541 11.2186 33.6807C11.3234 33.4072 11.3758 33.0711 11.3758 32.6724V32.3477ZM18.5133 30.0234H18.9986L18.7184 31.3667L17.6588 35H17.1769L17.5289 33.4995L18.5133 30.0234ZM17.2965 33.4346L17.5289 35H17.0538L15.8507 30.0234H16.5138L17.2965 33.4346ZM21.0357 30.0234H21.7022L20.4991 35H20.024L20.2701 33.4312L21.0357 30.0234ZM20.0274 33.4995L20.3761 35H19.8941L18.8722 31.3667L18.5953 30.0234H19.0704L20.0274 33.4995ZM28.7953 35H26.1669V34.4668H28.7953V35ZM26.2968 35H25.6337V30.0234H26.2968V35ZM28.4467 32.6963H26.1669V32.1631H28.4467V32.6963ZM28.7611 30.5601H26.1669V30.0234H28.7611V30.5601ZM34.4597 30.0234C34.8334 30.0234 35.1501 30.0804 35.4099 30.1943C35.6696 30.3083 35.8667 30.4769 36.0012 30.7002C36.1379 30.9212 36.2062 31.1935 36.2062 31.5171C36.2062 31.745 36.1595 31.9523 36.0661 32.1392C35.975 32.326 35.8428 32.4855 35.6696 32.6177C35.4965 32.7498 35.2902 32.8478 35.051 32.9116L34.8664 32.9834H33.3215L33.3146 32.4502H34.4768C34.7137 32.4502 34.9108 32.408 35.0681 32.3237C35.2253 32.2394 35.3426 32.1266 35.4201 31.9854C35.4999 31.8441 35.5397 31.688 35.5397 31.5171C35.5397 31.2277 35.4543 30.9964 35.2834 30.8232C35.1125 30.6478 34.8379 30.5601 34.4597 30.5601H33.4753V35H32.8122V30.0234H34.4597ZM34.5075 32.7441H35.2014L36.425 34.959V35H35.7141L34.5075 32.7441ZM47.5555 30.0234H48.0408L47.7605 31.3667L46.701 35H46.219L46.5711 33.4995L47.5555 30.0234ZM46.3387 33.4346L46.5711 35H46.096L44.8929 30.0234H45.556L46.3387 33.4346ZM50.0779 30.0234H50.7444L49.5413 35H49.0662L49.3123 33.4312L50.0779 30.0234ZM49.0696 33.4995L49.4183 35H48.9363L47.9144 31.3667L47.6375 30.0234H48.1126L49.0696 33.4995ZM55.3868 35H54.7237V30.0234H55.3868V35ZM61.6254 35H60.9691V30.0234H61.6254V35ZM63.2216 30.5601H59.3764V30.0234H63.2216V30.5601ZM70.4069 32.6963H67.7204V32.1631H70.4069V32.6963ZM67.823 35H67.1599V30.0234H67.823V35ZM70.988 35H70.3249V30.0234H70.988V35ZM76.0679 35H75.4048V30.0234H76.0679V35ZM84.2923 35H83.6258L81.1272 31.1514V35H80.4642V30.0234H81.1272L83.636 33.8823V30.0234H84.2923V35ZM89.1432 34.7573C89.1432 34.9647 89.0908 35.1834 88.9859 35.4136C88.8811 35.6437 88.733 35.8363 88.5416 35.9912L88.1793 35.7451C88.2522 35.6449 88.3137 35.5435 88.3639 35.4409C88.414 35.3384 88.4516 35.2313 88.4767 35.1196C88.504 35.008 88.5177 34.8906 88.5177 34.7676V34.2515H89.1432V34.7573ZM98.6911 33.0483V32.5151H100.017C100.275 32.5151 100.482 32.4741 100.639 32.3921C100.799 32.3078 100.915 32.1927 100.988 32.0469C101.063 31.901 101.101 31.7347 101.101 31.5479C101.101 31.377 101.063 31.2163 100.988 31.0659C100.915 30.9155 100.799 30.7936 100.639 30.7002C100.482 30.6068 100.275 30.5601 100.017 30.5601H98.8415V35H98.1784V30.0234H100.017C100.393 30.0234 100.711 30.0884 100.971 30.2183C101.231 30.3481 101.428 30.527 101.562 30.7549C101.697 30.9827 101.764 31.2448 101.764 31.541C101.764 31.86 101.697 32.1323 101.562 32.3579C101.428 32.5835 101.231 32.7555 100.971 32.874C100.711 32.9902 100.393 33.0483 100.017 33.0483H98.6911ZM109.633 32.6724C109.633 33.1691 109.551 33.5964 109.387 33.9541C109.223 34.3118 108.991 34.5876 108.693 34.7812C108.394 34.9727 108.042 35.0684 107.637 35.0684C107.245 35.0684 106.897 34.9727 106.594 34.7812C106.291 34.5876 106.054 34.3118 105.883 33.9541C105.712 33.5964 105.627 33.1691 105.627 32.6724V32.3545C105.627 31.8577 105.711 31.4305 105.88 31.0728C106.051 30.7127 106.287 30.437 106.587 30.2456C106.89 30.0519 107.238 29.9551 107.63 29.9551C108.035 29.9551 108.388 30.0519 108.686 30.2456C108.987 30.437 109.219 30.7127 109.383 31.0728C109.55 31.4305 109.633 31.8577 109.633 32.3545V32.6724ZM108.977 32.3477C108.977 31.9512 108.923 31.6174 108.816 31.3462C108.709 31.0728 108.555 30.8654 108.354 30.7241C108.154 30.5828 107.912 30.5122 107.63 30.5122C107.359 30.5122 107.122 30.5828 106.919 30.7241C106.718 30.8654 106.562 31.0728 106.451 31.3462C106.341 31.6174 106.287 31.9512 106.287 32.3477V32.6724C106.287 33.0711 106.342 33.4072 106.454 33.6807C106.566 33.9541 106.723 34.1615 106.926 34.3027C107.129 34.444 107.366 34.5146 107.637 34.5146C107.922 34.5146 108.163 34.444 108.361 34.3027C108.562 34.1615 108.715 33.9541 108.819 33.6807C108.924 33.4072 108.977 33.0711 108.977 32.6724V32.3477ZM115.389 35H114.733V30.0234H115.389V35ZM116.986 30.5601H113.14V30.0234H116.986V30.5601ZM124.086 35H121.457V34.4668H124.086V35ZM121.587 35H120.924V30.0234H121.587V35ZM123.737 32.6963H121.457V32.1631H123.737V32.6963ZM124.051 30.5601H121.457V30.0234H124.051V30.5601ZM131.931 35H131.264L128.766 31.1514V35H128.102V30.0234H128.766L131.274 33.8823V30.0234H131.931V35ZM138.142 35H137.486V30.0234H138.142V35ZM139.738 30.5601H135.893V30.0234H139.738V30.5601ZM144.387 35H143.724V30.0234H144.387V35ZM148.985 35H148.302L150.202 30.0234H150.639L150.629 30.4609L148.985 35ZM150.356 30.4609L150.349 30.0234H150.783L152.687 35H152.007L150.356 30.4609ZM151.925 33.6978H149.125V33.1611H151.925V33.6978ZM159.578 35H157.09V34.4668H159.578V35ZM157.22 35H156.557V30.0234H157.22V35ZM171.973 30.0234V33.3901C171.973 33.7638 171.889 34.0749 171.72 34.3232C171.554 34.5716 171.333 34.7585 171.057 34.8838C170.784 35.0068 170.487 35.0684 170.165 35.0684C169.828 35.0684 169.523 35.0068 169.249 34.8838C168.978 34.7585 168.763 34.5716 168.603 34.3232C168.446 34.0749 168.367 33.7638 168.367 33.3901V30.0234H169.024V33.3901C169.024 33.6499 169.071 33.8641 169.167 34.0327C169.263 34.2013 169.396 34.3278 169.567 34.4121C169.738 34.4941 169.937 34.5352 170.165 34.5352C170.395 34.5352 170.596 34.4941 170.767 34.4121C170.938 34.3278 171.07 34.2013 171.163 34.0327C171.259 33.8641 171.307 33.6499 171.307 33.3901V30.0234H171.973ZM180.034 35H179.367L176.869 31.1514V35H176.206V30.0234H176.869L179.377 33.8823V30.0234H180.034V35ZM187.424 35H184.936V34.4668H187.424V35ZM185.066 35H184.403V30.0234H185.066V35ZM194.538 35H191.909V34.4668H194.538V35ZM192.039 35H191.376V30.0234H192.039V35ZM194.189 32.6963H191.909V32.1631H194.189V32.6963ZM194.504 30.5601H191.909V30.0234H194.504V30.5601ZM198.756 35H198.073L199.973 30.0234H200.411L200.4 30.4609L198.756 35ZM200.127 30.4609L200.12 30.0234H200.554L202.458 35H201.778L200.127 30.4609ZM201.696 33.6978H198.896V33.1611H201.696V33.6978ZM208.977 33.7422C208.977 33.585 208.944 33.4517 208.878 33.3423C208.812 33.2329 208.693 33.1338 208.522 33.0449C208.351 32.9561 208.109 32.866 207.794 32.7749C207.548 32.7043 207.326 32.6245 207.128 32.5356C206.932 32.4445 206.763 32.3408 206.622 32.2246C206.481 32.1084 206.372 31.9751 206.297 31.8247C206.222 31.6743 206.184 31.5023 206.184 31.3086C206.184 31.0488 206.254 30.8175 206.393 30.6147C206.534 30.4097 206.731 30.249 206.984 30.1328C207.237 30.0143 207.533 29.9551 207.873 29.9551C208.249 29.9551 208.568 30.0269 208.83 30.1704C209.092 30.3117 209.291 30.4974 209.428 30.7275C209.565 30.9554 209.633 31.1992 209.633 31.459H208.967C208.967 31.2721 208.927 31.1058 208.847 30.96C208.769 30.8141 208.65 30.7002 208.488 30.6182C208.326 30.5339 208.121 30.4917 207.873 30.4917C207.64 30.4917 207.448 30.527 207.295 30.5977C207.145 30.6683 207.033 30.764 206.96 30.8848C206.887 31.0055 206.851 31.1434 206.851 31.2983C206.851 31.4373 206.891 31.5615 206.97 31.6709C207.05 31.778 207.175 31.8748 207.346 31.9614C207.517 32.048 207.738 32.13 208.009 32.2075C208.385 32.3123 208.694 32.4342 208.936 32.5732C209.177 32.7122 209.355 32.8763 209.469 33.0654C209.585 33.2546 209.643 33.4779 209.643 33.7354C209.643 34.0042 209.571 34.2389 209.428 34.4395C209.284 34.64 209.083 34.7949 208.823 34.9043C208.563 35.0137 208.258 35.0684 207.907 35.0684C207.677 35.0684 207.45 35.0365 207.227 34.9727C207.006 34.9089 206.804 34.8132 206.622 34.6855C206.442 34.5579 206.297 34.4007 206.188 34.2139C206.081 34.0247 206.027 33.806 206.027 33.5576H206.69C206.69 33.7285 206.723 33.8755 206.789 33.9985C206.855 34.1216 206.945 34.223 207.059 34.3027C207.173 34.3825 207.303 34.4417 207.449 34.4805C207.595 34.5169 207.747 34.5352 207.907 34.5352C208.137 34.5352 208.331 34.5033 208.488 34.4395C208.647 34.3734 208.768 34.2811 208.85 34.1626C208.935 34.0441 208.977 33.904 208.977 33.7422ZM216.931 32.6963H214.245V32.1631H216.931V32.6963ZM214.347 35H213.684V30.0234H214.347V35ZM217.512 35H216.849V30.0234H217.512V35ZM225.043 35H222.414V34.4668H225.043V35ZM222.544 35H221.881V30.0234H222.544V35ZM224.694 32.6963H222.414V32.1631H224.694V32.6963ZM225.009 30.5601H222.414V30.0234H225.009V30.5601ZM229.367 35L229.374 34.4668H230.406C230.76 34.4668 231.055 34.3927 231.292 34.2446C231.529 34.0942 231.706 33.8846 231.825 33.6157C231.946 33.3446 232.006 33.0267 232.006 32.6621V32.3545C232.006 31.974 231.946 31.6504 231.825 31.3838C231.706 31.1172 231.532 30.9132 231.302 30.772C231.072 30.6307 230.793 30.5601 230.464 30.5601H229.347V30.0234H230.464C230.902 30.0234 231.285 30.1191 231.613 30.3105C231.943 30.4997 232.201 30.7697 232.385 31.1206C232.57 31.4692 232.662 31.8828 232.662 32.3613V32.6621C232.662 33.1429 232.57 33.5576 232.385 33.9062C232.201 34.2549 231.94 34.5249 231.603 34.7163C231.265 34.9054 230.867 35 230.406 35H229.367ZM229.723 35H229.06V30.0234H229.723V35Z" fill="white"/>
<path d="M0 22.9978L29.1326 0H42.7092V22.9978H25.3514L19.667 17.5307H34.5125L32.6853 15.7083V6.77615L12.3078 22.9978H0Z" fill="white"/>
<path d="M80.7014 0H45.3008V22.9978H55.3246V12.6026L68.4698 23.0235H80.7014L72.3779 16.427L80.7014 11.4989V0ZM70.703 11.4989H55.2739L55.2231 7.10982L53.7259 5.59546H70.7284V11.4989H70.703Z" fill="white"/>
<path d="M83.543 22.9978V0H94.0236L101.256 5.56979L108.209 0H118.791V22.9978H108.565L110.316 21.4321V10.0872L115.67 5.56979H111.889L101.154 14.2453L90.2932 5.56979H86.6136L92.095 10.2156V21.6118L94.0997 22.9978H83.543Z" fill="white"/>
<path d="M121.703 0V22.9978H157.231V0H121.703ZM147.562 17.4024H131.524V6.98149L129.773 5.44145H147.562V17.4024Z" fill="white"/>
<path d="M159.922 0H169.996V17.4024H187.303L185.324 15.8367V0H195.272V22.9978H167.104L159.922 17.12V0Z" fill="white"/>
<path d="M233.266 0H198.094V22.9978H208.041V12.5256L221.06 22.9978H233.241L224.993 16.427L233.266 11.4989V0ZM223.674 11.4989H207.991V7.03282L206.062 5.56979H223.674V11.4989Z" fill="white"/>
</svg>
